<svg id="visual" viewBox="0 0 900 600" width="900" height="600" xmlns="http://www.w3.org/2000/svg" xmlns:xlink="http://www.w3.org/1999/xlink" version="1.1"><rect x="0" y="0" width="900" height="600" fill="#fff"></rect><defs><linearGradient id="grad1_0" x1="33.3%" y1="0%" x2="100%" y2="100%"><stop offset="20%" stop-color="#3d3dfb" stop-opacity="1"></stop><stop offset="80%" stop-color="#3d3dfb" stop-opacity="1"></stop></linearGradient></defs><defs><linearGradient id="grad1_1" x1="33.3%" y1="0%" x2="100%" y2="100%"><stop offset="20%" stop-color="#3d3dfb" stop-opacity="1"></stop><stop offset="80%" stop-color="#866cfe" stop-opacity="1"></stop></linearGradient></defs><defs><linearGradient id="grad1_2" x1="33.3%" y1="0%" x2="100%" y2="100%"><stop offset="20%" stop-color="#b59cff" stop-opacity="1"></stop><stop offset="80%" stop-color="#866cfe" stop-opacity="1"></stop></linearGradient></defs><defs><linearGradient id="grad1_3" x1="33.3%" y1="0%" x2="100%" y2="100%"><stop offset="20%" stop-color="#b59cff" stop-opacity="1"></stop><stop offset="80%" stop-color="#dccdff" stop-opacity="1"></stop></linearGradient></defs><defs><linearGradient id="grad1_4" x1="33.3%" y1="0%" x2="100%" y2="100%"><stop offset="20%" stop-color="#ffffff" stop-opacity="1"></stop><stop offset="80%" stop-color="#dccdff" stop-opacity="1"></stop></linearGradient></defs><defs><linearGradient id="grad2_0" x1="0%" y1="0%" x2="66.7%" y2="100%"><stop offset="20%" stop-color="#3d3dfb" stop-opacity="1"></stop><stop offset="80%" stop-color="#3d3dfb" stop-opacity="1"></stop></linearGradient></defs><defs><linearGradient id="grad2_1" x1="0%" y1="0%" x2="66.7%" y2="100%"><stop offset="20%" stop-color="#866cfe" stop-opacity="1"></stop><stop offset="80%" stop-color="#3d3dfb" stop-opacity="1"></stop></linearGradient></defs><defs><linearGradient id="grad2_2" x1="0%" y1="0%" x2="66.7%" y2="100%"><stop offset="20%" stop-color="#866cfe" stop-opacity="1"></stop><stop offset="80%" stop-color="#b59cff" stop-opacity="1"></stop></linearGradient></defs><defs><linearGradient id="grad2_3" x1="0%" y1="0%" x2="66.7%" y2="100%"><stop offset="20%" stop-color="#dccdff" stop-opacity="1"></stop><stop offset="80%" stop-color="#b59cff" stop-opacity="1"></stop></linearGradient></defs><defs><linearGradient id="grad2_4" x1="0%" y1="0%" x2="66.7%" y2="100%"><stop offset="20%" stop-color="#dccdff" stop-opacity="1"></stop><stop offset="80%" stop-color="#ffffff" stop-opacity="1"></stop></linearGradient></defs><g transform="translate(900, 0)"><path d="M0 438C-73.5 424.7 -146.9 411.4 -219 379.3C-291.1 347.2 -361.7 296.2 -398.1 229.9C-434.5 163.5 -436.8 81.7 -439 0L0 0Z" fill="#eee6ff"></path><path d="M0 350.4C-58.8 339.8 -117.6 329.2 -175.2 303.5C-232.8 277.8 -289.4 237 -318.5 183.9C-347.6 130.8 -349.4 65.4 -351.2 0L0 0Z" fill="#c9b4ff"></path><path d="M0 262.8C-44.1 254.8 -88.2 246.9 -131.4 227.6C-174.6 208.3 -217 177.7 -238.9 137.9C-260.7 98.1 -262.1 49 -263.4 0L0 0Z" fill="#9f84ff"></path><path d="M0 175.2C-29.4 169.9 -58.8 164.6 -87.6 151.7C-116.4 138.9 -144.7 118.5 -159.2 91.9C-173.8 65.4 -174.7 32.7 -175.6 0L0 0Z" fill="#6855fd"></path><path d="M0 87.6C-14.7 84.9 -29.4 82.3 -43.8 75.9C-58.2 69.4 -72.3 59.2 -79.6 46C-86.9 32.7 -87.4 16.3 -87.8 0L0 0Z" fill="#3d3dfb"></path></g><g transform="translate(0, 600)"><path d="M0 -459.7C77.6 -442.5 155.3 -425.4 224 -388C292.7 -350.6 352.5 -293 389.7 -225C426.9 -157 441.4 -78.5 456 0L0 0Z" fill="#eee6ff"></path><path d="M0 -367.8C62.1 -354 124.2 -340.3 179.2 -310.4C234.2 -280.5 282 -234.4 311.8 -180C341.5 -125.6 353.2 -62.8 364.8 0L0 0Z" fill="#c9b4ff"></path><path d="M0 -275.8C46.6 -265.5 93.2 -255.2 134.4 -232.8C175.6 -210.4 211.5 -175.8 233.8 -135C256.1 -94.2 264.9 -47.1 273.6 0L0 0Z" fill="#9f84ff"></path><path d="M0 -183.9C31.1 -177 62.1 -170.1 89.6 -155.2C117.1 -140.2 141 -117.2 155.9 -90C170.8 -62.8 176.6 -31.4 182.4 0L0 0Z" fill="#6855fd"></path><path d="M0 -91.9C15.5 -88.5 31.1 -85.1 44.8 -77.6C58.5 -70.1 70.5 -58.6 77.9 -45C85.4 -31.4 88.3 -15.7 91.2 0L0 0Z" fill="#3d3dfb"></path></g></svg>