<svg id="visual" viewBox="0 0 900 600" width="900" height="600" xmlns="http://www.w3.org/2000/svg" xmlns:xlink="http://www.w3.org/1999/xlink" version="1.1"><rect x="0" y="0" width="900" height="600" fill="#6a5dde"></rect><defs><linearGradient id="grad1_0" x1="33.3%" y1="0%" x2="100%" y2="100%"><stop offset="20%" stop-color="#ffffff" stop-opacity="1"></stop><stop offset="80%" stop-color="#ffffff" stop-opacity="1"></stop></linearGradient></defs><defs><linearGradient id="grad1_1" x1="33.3%" y1="0%" x2="100%" y2="100%"><stop offset="20%" stop-color="#ffffff" stop-opacity="1"></stop><stop offset="80%" stop-color="#e5ddf9" stop-opacity="1"></stop></linearGradient></defs><defs><linearGradient id="grad1_2" x1="33.3%" y1="0%" x2="100%" y2="100%"><stop offset="20%" stop-color="#c9bcf3" stop-opacity="1"></stop><stop offset="80%" stop-color="#e5ddf9" stop-opacity="1"></stop></linearGradient></defs><defs><linearGradient id="grad1_3" x1="33.3%" y1="0%" x2="100%" y2="100%"><stop offset="20%" stop-color="#c9bcf3" stop-opacity="1"></stop><stop offset="80%" stop-color="#ad9bed" stop-opacity="1"></stop></linearGradient></defs><defs><linearGradient id="grad1_4" x1="33.3%" y1="0%" x2="100%" y2="100%"><stop offset="20%" stop-color="#8e7ce5" stop-opacity="1"></stop><stop offset="80%" stop-color="#ad9bed" stop-opacity="1"></stop></linearGradient></defs><defs><linearGradient id="grad1_5" x1="33.3%" y1="0%" x2="100%" y2="100%"><stop offset="20%" stop-color="#8e7ce5" stop-opacity="1"></stop><stop offset="80%" stop-color="#6a5dde" stop-opacity="1"></stop></linearGradient></defs><defs><linearGradient id="grad2_0" x1="0%" y1="0%" x2="66.7%" y2="100%"><stop offset="20%" stop-color="#ffffff" stop-opacity="1"></stop><stop offset="80%" stop-color="#ffffff" stop-opacity="1"></stop></linearGradient></defs><defs><linearGradient id="grad2_1" x1="0%" y1="0%" x2="66.7%" y2="100%"><stop offset="20%" stop-color="#e5ddf9" stop-opacity="1"></stop><stop offset="80%" stop-color="#ffffff" stop-opacity="1"></stop></linearGradient></defs><defs><linearGradient id="grad2_2" x1="0%" y1="0%" x2="66.7%" y2="100%"><stop offset="20%" stop-color="#e5ddf9" stop-opacity="1"></stop><stop offset="80%" stop-color="#c9bcf3" stop-opacity="1"></stop></linearGradient></defs><defs><linearGradient id="grad2_3" x1="0%" y1="0%" x2="66.7%" y2="100%"><stop offset="20%" stop-color="#ad9bed" stop-opacity="1"></stop><stop offset="80%" stop-color="#c9bcf3" stop-opacity="1"></stop></linearGradient></defs><defs><linearGradient id="grad2_4" x1="0%" y1="0%" x2="66.7%" y2="100%"><stop offset="20%" stop-color="#ad9bed" stop-opacity="1"></stop><stop offset="80%" stop-color="#8e7ce5" stop-opacity="1"></stop></linearGradient></defs><defs><linearGradient id="grad2_5" x1="0%" y1="0%" x2="66.7%" y2="100%"><stop offset="20%" stop-color="#6a5dde" stop-opacity="1"></stop><stop offset="80%" stop-color="#8e7ce5" stop-opacity="1"></stop></linearGradient></defs><g transform="translate(900, 0)"><path d="M0 405.6C-69.9 393.9 -139.8 382.2 -202 349.9C-264.2 317.5 -318.6 264.6 -351.3 202.8C-383.9 141.1 -394.8 70.5 -405.6 0L0 0Z" fill="#7d6ce2"></path><path d="M0 338C-58.3 328.3 -116.5 318.5 -168.3 291.6C-220.2 264.6 -265.5 220.5 -292.7 169C-319.9 117.6 -329 58.8 -338 0L0 0Z" fill="#9d8be9"></path><path d="M0 270.4C-46.6 262.6 -93.2 254.8 -134.7 233.2C-176.1 211.7 -212.4 176.4 -234.2 135.2C-256 94 -263.2 47 -270.4 0L0 0Z" fill="#bbabf0"></path><path d="M0 202.8C-35 197 -69.9 191.1 -101 174.9C-132.1 158.8 -159.3 132.3 -175.6 101.4C-192 70.5 -197.4 35.3 -202.8 0L0 0Z" fill="#d7ccf6"></path><path d="M0 135.2C-23.3 131.3 -46.6 127.4 -67.3 116.6C-88.1 105.8 -106.2 88.2 -117.1 67.6C-128 47 -131.6 23.5 -135.2 0L0 0Z" fill="#f2eefc"></path><path d="M0 67.6C-11.7 65.7 -23.3 63.7 -33.7 58.3C-44 52.9 -53.1 44.1 -58.5 33.8C-64 23.5 -65.8 11.8 -67.6 0L0 0Z" fill="#ffffff"></path></g><g transform="translate(0, 600)"><path d="M0 -405.6C70.6 -394.8 141.3 -384.1 202.8 -351.3C264.3 -318.5 316.7 -263.7 349 -201.5C381.3 -139.3 393.5 -69.6 405.6 0L0 0Z" fill="#7d6ce2"></path><path d="M0 -338C58.9 -329 117.7 -320.1 169 -292.7C220.3 -265.4 263.9 -219.8 290.8 -167.9C317.7 -116.1 327.9 -58 338 0L0 0Z" fill="#9d8be9"></path><path d="M0 -270.4C47.1 -263.2 94.2 -256 135.2 -234.2C176.2 -212.3 211.2 -175.8 232.7 -134.3C254.2 -92.9 262.3 -46.4 270.4 0L0 0Z" fill="#bbabf0"></path><path d="M0 -202.8C35.3 -197.4 70.6 -192 101.4 -175.6C132.2 -159.2 158.4 -131.9 174.5 -100.8C190.6 -69.6 196.7 -34.8 202.8 0L0 0Z" fill="#d7ccf6"></path><path d="M0 -135.2C23.5 -131.6 47.1 -128 67.6 -117.1C88.1 -106.2 105.6 -87.9 116.3 -67.2C127.1 -46.4 131.2 -23.2 135.2 0L0 0Z" fill="#f2eefc"></path><path d="M0 -67.6C11.8 -65.8 23.5 -64 33.8 -58.5C44.1 -53.1 52.8 -44 58.2 -33.6C63.5 -23.2 65.6 -11.6 67.6 0L0 0Z" fill="#ffffff"></path></g></svg>