<svg id="visual" viewBox="0 0 900 600" width="900" height="600" xmlns="http://www.w3.org/2000/svg" xmlns:xlink="http://www.w3.org/1999/xlink" version="1.1"><path d="M464 0L443 12.5C422 25 380 50 372.5 75C365 100 392 125 395.8 150C399.7 175 380.3 200 368.2 225C356 250 351 275 372.3 300C393.7 325 441.3 350 445.2 375C449 400 409 425 408.5 450C408 475 447 500 450.8 525C454.7 550 423.3 575 407.7 587.5L392 600L0 600L0 587.5C0 575 0 550 0 525C0 500 0 475 0 450C0 425 0 400 0 375C0 350 0 325 0 300C0 275 0 250 0 225C0 200 0 175 0 150C0 125 0 100 0 75C0 50 0 25 0 12.5L0 0Z" fill="#ffffff"></path><path d="M332 0L349 12.5C366 25 400 50 391.8 75C383.7 100 333.3 125 317.5 150C301.7 175 320.3 200 338.3 225C356.3 250 373.7 275 365.5 300C357.3 325 323.7 350 323.5 375C323.3 400 356.7 425 361.5 450C366.3 475 342.7 500 336 525C329.3 550 339.7 575 344.8 587.5L350 600L0 600L0 587.5C0 575 0 550 0 525C0 500 0 475 0 450C0 425 0 400 0 375C0 350 0 325 0 300C0 275 0 250 0 225C0 200 0 175 0 150C0 125 0 100 0 75C0 50 0 25 0 12.5L0 0Z" fill="#ede7fb"></path><path d="M311 0L302.3 12.5C293.7 25 276.3 50 269.3 75C262.3 100 265.7 125 273 150C280.3 175 291.7 200 295.5 225C299.3 250 295.7 275 312.2 300C328.7 325 365.3 350 384.8 375C404.3 400 406.7 425 396.5 450C386.3 475 363.7 500 353.2 525C342.7 550 344.3 575 345.2 587.5L346 600L0 600L0 587.5C0 575 0 550 0 525C0 500 0 475 0 450C0 425 0 400 0 375C0 350 0 325 0 300C0 275 0 250 0 225C0 200 0 175 0 150C0 125 0 100 0 75C0 50 0 25 0 12.5L0 0Z" fill="#dcd0f7"></path><path d="M213 0L237.3 12.5C261.7 25 310.3 50 322.2 75C334 100 309 125 292.2 150C275.3 175 266.7 200 258.2 225C249.7 250 241.3 275 256.3 300C271.3 325 309.7 350 316.8 375C324 400 300 425 293.3 450C286.7 475 297.3 500 306.2 525C315 550 322 575 325.5 587.5L329 600L0 600L0 587.5C0 575 0 550 0 525C0 500 0 475 0 450C0 425 0 400 0 375C0 350 0 325 0 300C0 275 0 250 0 225C0 200 0 175 0 150C0 125 0 100 0 75C0 50 0 25 0 12.5L0 0Z" fill="#c9b9f3"></path><path d="M224 0L223.8 12.5C223.7 25 223.3 50 232.2 75C241 100 259 125 262.3 150C265.7 175 254.3 200 259.2 225C264 250 285 275 282.7 300C280.3 325 254.7 350 236.5 375C218.3 400 207.7 425 202.7 450C197.7 475 198.3 500 200.8 525C203.3 550 207.7 575 209.8 587.5L212 600L0 600L0 587.5C0 575 0 550 0 525C0 500 0 475 0 450C0 425 0 400 0 375C0 350 0 325 0 300C0 275 0 250 0 225C0 200 0 175 0 150C0 125 0 100 0 75C0 50 0 25 0 12.5L0 0Z" fill="#b6a2ee"></path><path d="M227 0L218 12.5C209 25 191 50 193 75C195 100 217 125 217.7 150C218.3 175 197.7 200 193.2 225C188.7 250 200.3 275 196 300C191.7 325 171.3 350 174 375C176.7 400 202.3 425 219.2 450C236 475 244 500 232.5 525C221 550 190 575 174.5 587.5L159 600L0 600L0 587.5C0 575 0 550 0 525C0 500 0 475 0 450C0 425 0 400 0 375C0 350 0 325 0 300C0 275 0 250 0 225C0 200 0 175 0 150C0 125 0 100 0 75C0 50 0 25 0 12.5L0 0Z" fill="#a28ce9"></path><path d="M156 0L151.2 12.5C146.3 25 136.7 50 135.3 75C134 100 141 125 138.7 150C136.3 175 124.7 200 131.7 225C138.7 250 164.3 275 172.7 300C181 325 172 350 170.5 375C169 400 175 425 168.3 450C161.7 475 142.3 500 129.8 525C117.3 550 111.7 575 108.8 587.5L106 600L0 600L0 587.5C0 575 0 550 0 525C0 500 0 475 0 450C0 425 0 400 0 375C0 350 0 325 0 300C0 275 0 250 0 225C0 200 0 175 0 150C0 125 0 100 0 75C0 50 0 25 0 12.5L0 0Z" fill="#8d76e4"></path><path d="M121 0L119.7 12.5C118.3 25 115.7 50 116.2 75C116.7 100 120.3 125 118.3 150C116.3 175 108.7 200 101.3 225C94 250 87 275 91.5 300C96 325 112 350 123.2 375C134.3 400 140.7 425 143.3 450C146 475 145 500 142.7 525C140.3 550 136.7 575 134.8 587.5L133 600L0 600L0 587.5C0 575 0 550 0 525C0 500 0 475 0 450C0 425 0 400 0 375C0 350 0 325 0 300C0 275 0 250 0 225C0 200 0 175 0 150C0 125 0 100 0 75C0 50 0 25 0 12.5L0 0Z" fill="#7560df"></path><path d="M89 0L85.7 12.5C82.3 25 75.7 50 73.3 75C71 100 73 125 67.5 150C62 175 49 200 45.3 225C41.7 250 47.3 275 54.5 300C61.7 325 70.3 350 68.3 375C66.3 400 53.7 425 53.5 450C53.3 475 65.7 500 66.7 525C67.7 550 57.3 575 52.2 587.5L47 600L0 600L0 587.5C0 575 0 550 0 525C0 500 0 475 0 450C0 425 0 400 0 375C0 350 0 325 0 300C0 275 0 250 0 225C0 200 0 175 0 150C0 125 0 100 0 75C0 50 0 25 0 12.5L0 0Z" fill="#5a4bda"></path></svg>